Oxanium-ExtraBold.ufo
<glyph name="exclam" format="2">
  <advance width="287"/>
  <unicode hex="0021"/>
  <outline>
    <contour>
      <point x="56" y="0" type="line"/>
      <point x="56" y="161" type="line"/>
      <point x="231" y="161" type="line"/>
      <point x="231" y="0" type="line"/>
    </contour>
    <contour>
      <point x="56" y="228" type="line"/>
      <point x="56" y="690" type="line"/>
      <point x="230" y="690" type="line"/>
      <point x="230" y="228" type="line"/>
    </contour>
  </outline>
</glyph>
<glyph name="numbersign" format="2">
  <advance width="682"/>
  <unicode hex="0023"/>
  <outline>
    <contour>
      <point x="50" y="154" type="line"/>
      <point x="50" y="296" type="line"/>
      <point x="152" y="296" type="line"/>
      <point x="152" y="394" type="line"/>
      <point x="50" y="394" type="line"/>
      <point x="50" y="536" type="line"/>
      <point x="152" y="536" type="line"/>
      <point x="152" y="690" type="line"/>
      <point x="302" y="690" type="line"/>
      <point x="302" y="536" type="line"/>
      <point x="380" y="536" type="line"/>
      <point x="380" y="690" type="line"/>
      <point x="530" y="690" type="line"/>
      <point x="530" y="536" type="line"/>
      <point x="632" y="536" type="line"/>
      <point x="632" y="394" type="line"/>
      <point x="530" y="394" type="line"/>
      <point x="530" y="296" type="line"/>
      <point x="632" y="296" type="line"/>
      <point x="632" y="154" type="line"/>
      <point x="530" y="154" type="line"/>
      <point x="530" y="0" type="line"/>
      <point x="380" y="0" type="line"/>
      <point x="380" y="154" type="line"/>
      <point x="302" y="154" type="line"/>
      <point x="302" y="0" type="line"/>
      <point x="152" y="0" type="line"/>
      <point x="152" y="154" type="line"/>
    </contour>
    <contour>
      <point x="302" y="296" type="line"/>
      <point x="380" y="296" type="line"/>
      <point x="380" y="394" type="line"/>
      <point x="302" y="394" type="line"/>
    </contour>
  </outline>
</glyph>
<glyph name="dollar" format="2">
  <advance width="578"/>
  <unicode hex="0024"/>
  <outline>
    <contour>
      <point x="51" y="60" type="line"/>
      <point x="51" y="157" type="line"/>
      <point x="342" y="157" type="line" smooth="yes"/>
      <point x="353" y="157"/>
      <point x="353" y="168" type="qcurve" smooth="yes"/>
      <point x="353" y="222" type="line" smooth="yes"/>
      <point x="353" y="236"/>
      <point x="341" y="238" type="qcurve" smooth="yes"/>
      <point x="176" y="270" type="line" smooth="yes"/>
      <point x="51" y="294"/>
      <point x="51" y="438" type="qcurve" smooth="yes"/>
      <point x="51" y="474" type="line" smooth="yes"/>
      <point x="51" y="660"/>
      <point x="212" y="660" type="qcurve" smooth="yes"/>
      <point x="216" y="660" type="line"/>
      <point x="216" y="780" type="line"/>
      <point x="362" y="780" type="line"/>
      <point x="362" y="660" type="line"/>
      <point x="429" y="660" type="line"/>
      <point x="507" y="600" type="line"/>
      <point x="507" y="503" type="line"/>
      <point x="236" y="503" type="line" smooth="yes"/>
      <point x="225" y="503"/>
      <point x="225" y="492" type="qcurve" smooth="yes"/>
      <point x="225" y="440" type="line" smooth="yes"/>
      <point x="225" y="426"/>
      <point x="237" y="424" type="qcurve" smooth="yes"/>
      <point x="402" y="390" type="line" smooth="yes"/>
      <point x="527" y="364"/>
      <point x="527" y="223" type="qcurve" smooth="yes"/>
      <point x="527" y="186" type="line" smooth="yes"/>
      <point x="527" y="0"/>
      <point x="366" y="0" type="qcurve" smooth="yes"/>
      <point x="362" y="0" type="line"/>
      <point x="362" y="-120" type="line"/>
      <point x="216" y="-120" type="line"/>
      <point x="216" y="0" type="line"/>
      <point x="129" y="0" type="line"/>
    </contour>
  </outline>
</glyph>
<glyph name="ampersand" format="2">
  <advance width="684"/>
  <unicode hex="0026"/>
  <outline>
    <contour>
      <point x="58" y="168" type="qcurve" smooth="yes"/>
      <point x="58" y="244" type="line" smooth="yes"/>
      <point x="58" y="296"/>
      <point x="91" y="324" type="qcurve" smooth="yes"/>
      <point x="133" y="359" type="line"/>
      <point x="98" y="401" type="line" smooth="yes"/>
      <point x="78" y="425"/>
      <point x="78" y="459" type="qcurve" smooth="yes"/>
      <point x="78" y="522" type="line" smooth="yes"/>
      <point x="78" y="690"/>
      <point x="246" y="690" type="qcurve" smooth="yes"/>
      <point x="424" y="690" type="line"/>
      <point x="494" y="638" type="line"/>
      <point x="494" y="545" type="line"/>
      <point x="258" y="545" type="line" smooth="yes"/>
      <point x="245" y="545"/>
      <point x="245" y="532" type="qcurve" smooth="yes"/>
      <point x="245" y="443" type="line" smooth="yes"/>
      <point x="245" y="430"/>
      <point x="258" y="430" type="qcurve" smooth="yes"/>
      <point x="644" y="430" type="line"/>
      <point x="644" y="285" type="line"/>
      <point x="544" y="285" type="line"/>
      <point x="544" y="0" type="line"/>
      <point x="226" y="0" type="line" smooth="yes"/>
      <point x="58" y="0"/>
    </contour>
    <contour>
      <point x="225" y="158" type="line" smooth="yes"/>
      <point x="225" y="145"/>
      <point x="238" y="145" type="qcurve" smooth="yes"/>
      <point x="377" y="145" type="line"/>
      <point x="377" y="285" type="line"/>
      <point x="238" y="285" type="line" smooth="yes"/>
      <point x="225" y="285"/>
      <point x="225" y="272" type="qcurve" smooth="yes"/>
    </contour>
  </outline>
</glyph>
<glyph name="quotesingle" format="2">
  <advance width="265"/>
  <unicode hex="0027"/>
  <outline>
    <contour>
      <point x="58" y="460" type="line"/>
      <point x="58" y="740" type="line"/>
      <point x="207" y="740" type="line"/>
      <point x="207" y="460" type="line"/>
    </contour>
  </outline>
</glyph>
<glyph name="parenright" format="2">
  <advance width="367"/>
  <unicode hex="0029"/>
  <outline>
    <contour>
      <point x="17" y="-110" type="line"/>
      <point x="139" y="66"/>
      <point x="139" y="514"/>
      <point x="17" y="690" type="qcurve"/>
      <point x="144" y="785" type="line"/>
      <point x="306" y="564"/>
      <point x="306" y="16"/>
      <point x="144" y="-205" type="qcurve"/>
    </contour>
  </outline>
</glyph>
<glyph name="plus" format="2">
  <advance width="578"/>
  <unicode hex="002B"/>
  <outline>
    <contour>
      <point x="58" y="264" type="line"/>
      <point x="58" y="406" type="line"/>
      <point x="214" y="406" type="line"/>
      <point x="214" y="570" type="line"/>
      <point x="364" y="570" type="line"/>
      <point x="364" y="406" type="line"/>
      <point x="520" y="406" type="line"/>
      <point x="520" y="264" type="line"/>
      <point x="364" y="264" type="line"/>
      <point x="364" y="100" type="line"/>
      <point x="214" y="100" type="line"/>
      <point x="214" y="264" type="line"/>
    </contour>
  </outline>
</glyph>
<glyph name="period" format="2">
  <advance width="287"/>
  <unicode hex="002E"/>
  <outline>
    <contour>
      <point x="56" y="0" type="line"/>
      <point x="56" y="161" type="line"/>
      <point x="231" y="161" type="line"/>
      <point x="231" y="0" type="line"/>
    </contour>
  </outline>
</glyph>
<glyph name="slash" format="2">
  <advance width="459"/>
  <unicode hex="002F"/>
  <outline>
    <contour>
      <point x="20" y="-12" type="line"/>
      <point x="300" y="752" type="line"/>
      <point x="439" y="702" type="line"/>
      <point x="160" y="-62" type="line"/>
    </contour>
  </outline>
</glyph>
<glyph name="five" format="2">
  <advance width="578"/>
  <unicode hex="0035"/>
  <outline>
    <contour>
      <point x="36" y="60" type="line"/>
      <point x="36" y="157" type="line"/>
      <point x="347" y="157" type="line" smooth="yes"/>
      <point x="358" y="157"/>
      <point x="358" y="168" type="qcurve" smooth="yes"/>
      <point x="358" y="272" type="line" smooth="yes"/>
      <point x="358" y="283"/>
      <point x="347" y="283" type="qcurve" smooth="yes"/>
      <point x="46" y="283" type="line"/>
      <point x="46" y="690" type="line"/>
      <point x="502" y="690" type="line"/>
      <point x="502" y="533" type="line"/>
      <point x="220" y="533" type="line"/>
      <point x="220" y="440" type="line"/>
      <point x="356" y="440" type="line" smooth="yes"/>
      <point x="532" y="440"/>
      <point x="532" y="264" type="qcurve" smooth="yes"/>
      <point x="532" y="176" type="line" smooth="yes"/>
      <point x="532" y="0"/>
      <point x="356" y="0" type="qcurve" smooth="yes"/>
      <point x="114" y="0" type="line"/>
    </contour>
  </outline>
</glyph>
<glyph name="eight" format="2">
  <advance width="578"/>
  <unicode hex="0038"/>
  <outline>
    <contour>
      <point x="46" y="176" type="qcurve" smooth="yes"/>
      <point x="46" y="254" type="line" smooth="yes"/>
      <point x="46" y="294"/>
      <point x="71" y="318" type="qcurve" smooth="yes"/>
      <point x="106" y="354" type="line"/>
      <point x="71" y="388" type="line" smooth="yes"/>
      <point x="46" y="414"/>
      <point x="46" y="454" type="qcurve" smooth="yes"/>
      <point x="46" y="514" type="line" smooth="yes"/>
      <point x="46" y="690"/>
      <point x="222" y="690" type="qcurve" smooth="yes"/>
      <point x="356" y="690" type="line" smooth="yes"/>
      <point x="532" y="690"/>
      <point x="532" y="514" type="qcurve" smooth="yes"/>
      <point x="532" y="454" type="line" smooth="yes"/>
      <point x="532" y="414"/>
      <point x="507" y="388" type="qcurve" smooth="yes"/>
      <point x="472" y="354" type="line"/>
      <point x="507" y="318" type="line" smooth="yes"/>
      <point x="532" y="294"/>
      <point x="532" y="254" type="qcurve" smooth="yes"/>
      <point x="532" y="176" type="line" smooth="yes"/>
      <point x="532" y="0"/>
      <point x="356" y="0" type="qcurve" smooth="yes"/>
      <point x="222" y="0" type="line" smooth="yes"/>
      <point x="46" y="0"/>
    </contour>
    <contour>
      <point x="220" y="168" type="line" smooth="yes"/>
      <point x="220" y="157"/>
      <point x="231" y="157" type="qcurve" smooth="yes"/>
      <point x="347" y="157" type="line" smooth="yes"/>
      <point x="358" y="157"/>
      <point x="358" y="168" type="qcurve" smooth="yes"/>
      <point x="358" y="262" type="line" smooth="yes"/>
      <point x="358" y="273"/>
      <point x="347" y="273" type="qcurve" smooth="yes"/>
      <point x="231" y="273" type="line" smooth="yes"/>
      <point x="220" y="273"/>
      <point x="220" y="262" type="qcurve" smooth="yes"/>
    </contour>
    <contour>
      <point x="220" y="441" type="line" smooth="yes"/>
      <point x="220" y="430"/>
      <point x="231" y="430" type="qcurve" smooth="yes"/>
      <point x="347" y="430" type="line" smooth="yes"/>
      <point x="358" y="430"/>
      <point x="358" y="441" type="qcurve" smooth="yes"/>
      <point x="358" y="522" type="line" smooth="yes"/>
      <point x="358" y="533"/>
      <point x="347" y="533" type="qcurve" smooth="yes"/>
      <point x="231" y="533" type="line" smooth="yes"/>
      <point x="220" y="533"/>
      <point x="220" y="522" type="qcurve" smooth="yes"/>
    </contour>
  </outline>
</glyph>
<glyph name="nine" format="2">
  <advance width="578"/>
  <unicode hex="0039"/>
  <outline>
    <contour>
      <point x="46" y="425" type="qcurve" smooth="yes"/>
      <point x="46" y="514" type="line" smooth="yes"/>
      <point x="46" y="690"/>
      <point x="222" y="690" type="qcurve" smooth="yes"/>
      <point x="356" y="690" type="line" smooth="yes"/>
      <point x="532" y="690"/>
      <point x="532" y="514" type="qcurve" smooth="yes"/>
      <point x="532" y="211" type="line" smooth="yes"/>
      <point x="532" y="0"/>
      <point x="321" y="0" type="qcurve" smooth="yes"/>
      <point x="154" y="0" type="line"/>
      <point x="76" y="60" type="line"/>
      <point x="76" y="157" type="line"/>
      <point x="325" y="157" type="line" smooth="yes"/>
      <point x="358" y="157"/>
      <point x="358" y="190" type="qcurve" smooth="yes"/>
      <point x="358" y="250" type="line"/>
      <point x="222" y="250" type="line" smooth="yes"/>
      <point x="46" y="250"/>
    </contour>
    <contour>
      <point x="220" y="418" type="line" smooth="yes"/>
      <point x="220" y="407"/>
      <point x="231" y="407" type="qcurve" smooth="yes"/>
      <point x="358" y="407" type="line"/>
      <point x="358" y="522" type="line" smooth="yes"/>
      <point x="358" y="533"/>
      <point x="347" y="533" type="qcurve" smooth="yes"/>
      <point x="231" y="533" type="line" smooth="yes"/>
      <point x="220" y="533"/>
      <point x="220" y="522" type="qcurve" smooth="yes"/>
    </contour>
  </outline>
</glyph>
<glyph name="less" format="2">
  <advance width="578"/>
  <unicode hex="003C"/>
  <outline>
    <contour>
      <point x="64" y="257" type="line"/>
      <point x="64" y="413" type="line"/>
      <point x="469" y="606" type="line"/>
      <point x="529" y="480" type="line"/>
      <point x="218" y="335" type="line"/>
      <point x="529" y="190" type="line"/>
      <point x="469" y="64" type="line"/>
    </contour>
  </outline>
</glyph>
<glyph name="equal" format="2">
  <advance width="578"/>
  <unicode hex="003D"/>
  <outline>
    <contour>
      <point x="58" y="154" type="line"/>
      <point x="58" y="296" type="line"/>
      <point x="520" y="296" type="line"/>
      <point x="520" y="154" type="line"/>
    </contour>
    <contour>
      <point x="58" y="374" type="line"/>
      <point x="58" y="516" type="line"/>
      <point x="520" y="516" type="line"/>
      <point x="520" y="374" type="line"/>
    </contour>
  </outline>
</glyph>
<glyph name="greater" format="2">
  <advance width="578"/>
  <unicode hex="003E"/>
  <outline>
    <contour>
      <point x="49" y="190" type="line"/>
      <point x="360" y="335" type="line"/>
      <point x="49" y="480" type="line"/>
      <point x="109" y="606" type="line"/>
      <point x="514" y="413" type="line"/>
      <point x="514" y="257" type="line"/>
      <point x="109" y="64" type="line"/>
    </contour>
  </outline>
</glyph>
<glyph name="at" format="2">
  <advance width="812"/>
  <unicode hex="0040"/>
  <outline>
    <contour>
      <point x="78" y="20" type="qcurve" smooth="yes"/>
      <point x="78" y="530" type="line" smooth="yes"/>
      <point x="78" y="690"/>
      <point x="238" y="690" type="qcurve" smooth="yes"/>
      <point x="734" y="690" type="line"/>
      <point x="734" y="60" type="line"/>
      <point x="466" y="60" type="line" smooth="yes"/>
      <point x="298" y="60"/>
      <point x="298" y="228" type="qcurve" smooth="yes"/>
      <point x="298" y="322" type="line" smooth="yes"/>
      <point x="298" y="490"/>
      <point x="466" y="490" type="qcurve" smooth="yes"/>
      <point x="585" y="490" type="line"/>
      <point x="585" y="560" type="line"/>
      <point x="244" y="560" type="line" smooth="yes"/>
      <point x="227" y="560"/>
      <point x="227" y="542" type="qcurve" smooth="yes"/>
      <point x="227" y="8" type="line" smooth="yes"/>
      <point x="227" y="-10"/>
      <point x="244" y="-10" type="qcurve" smooth="yes"/>
      <point x="714" y="-10" type="line"/>
      <point x="714" y="-88" type="line"/>
      <point x="644" y="-140" type="line"/>
      <point x="238" y="-140" type="line" smooth="yes"/>
      <point x="78" y="-140"/>
    </contour>
    <contour>
      <point x="465" y="218" type="line" smooth="yes"/>
      <point x="465" y="205"/>
      <point x="478" y="205" type="qcurve" smooth="yes"/>
      <point x="567" y="205" type="line"/>
      <point x="567" y="345" type="line"/>
      <point x="478" y="345" type="line" smooth="yes"/>
      <point x="465" y="345"/>
      <point x="465" y="332" type="qcurve" smooth="yes"/>
    </contour>
  </outline>
</glyph>
<glyph name="B" format="2">
  <advance width="656"/>
  <unicode hex="0042"/>
  <outline>
    <contour>
      <point x="78" y="0" type="line"/>
      <point x="78" y="690" type="line"/>
      <point x="408" y="690" type="line" smooth="yes"/>
      <point x="584" y="690"/>
      <point x="584" y="514" type="qcurve" smooth="yes"/>
      <point x="584" y="459" type="line" smooth="yes"/>
      <point x="584" y="425"/>
      <point x="564" y="401" type="qcurve" smooth="yes"/>
      <point x="529" y="359" type="line"/>
      <point x="571" y="324" type="line" smooth="yes"/>
      <point x="604" y="297"/>
      <point x="604" y="244" type="qcurve" smooth="yes"/>
      <point x="604" y="176" type="line" smooth="yes"/>
      <point x="604" y="0"/>
      <point x="428" y="0" type="qcurve" smooth="yes"/>
    </contour>
    <contour>
      <point x="252" y="157" type="line"/>
      <point x="419" y="157" type="line" smooth="yes"/>
      <point x="430" y="157"/>
      <point x="430" y="168" type="qcurve" smooth="yes"/>
      <point x="430" y="262" type="line" smooth="yes"/>
      <point x="430" y="273"/>
      <point x="419" y="273" type="qcurve" smooth="yes"/>
      <point x="252" y="273" type="line"/>
    </contour>
    <contour>
      <point x="252" y="430" type="line"/>
      <point x="399" y="430" type="line" smooth="yes"/>
      <point x="410" y="430"/>
      <point x="410" y="441" type="qcurve" smooth="yes"/>
      <point x="410" y="522" type="line" smooth="yes"/>
      <point x="410" y="533"/>
      <point x="399" y="533" type="qcurve" smooth="yes"/>
      <point x="252" y="533" type="line"/>
    </contour>
  </outline>
</glyph>
<glyph name="D" format="2">
  <advance width="692"/>
  <unicode hex="0044"/>
  <outline>
    <contour>
      <point x="78" y="0" type="line"/>
      <point x="78" y="690" type="line"/>
      <point x="336" y="690" type="line" smooth="yes"/>
      <point x="634" y="690"/>
      <point x="634" y="392" type="qcurve" smooth="yes"/>
      <point x="634" y="298" type="line" smooth="yes"/>
      <point x="634" y="0"/>
      <point x="336" y="0" type="qcurve" smooth="yes"/>
    </contour>
    <contour>
      <point x="252" y="157" type="line"/>
      <point x="346" y="157" type="line" smooth="yes"/>
      <point x="460" y="157"/>
      <point x="460" y="272" type="qcurve" smooth="yes"/>
      <point x="460" y="418" type="line" smooth="yes"/>
      <point x="460" y="533"/>
      <point x="346" y="533" type="qcurve" smooth="yes"/>
      <point x="252" y="533" type="line"/>
    </contour>
  </outline>
</glyph>
<glyph name="E" format="2">
  <advance width="611"/>
  <unicode hex="0045"/>
  <outline>
    <contour>
      <point x="78" y="0" type="line"/>
      <point x="78" y="690" type="line"/>
      <point x="561" y="690" type="line"/>
      <point x="561" y="533" type="line"/>
      <point x="252" y="533" type="line"/>
      <point x="252" y="430" type="line"/>
      <point x="531" y="430" type="line"/>
      <point x="531" y="273" type="line"/>
      <point x="252" y="273" type="line"/>
      <point x="252" y="157" type="line"/>
      <point x="561" y="157" type="line"/>
      <point x="561" y="0" type="line"/>
    </contour>
  </outline>
</glyph>
<glyph name="H" format="2">
  <advance width="712"/>
  <unicode hex="0048"/>
  <outline>
    <contour>
      <point x="78" y="0" type="line"/>
      <point x="78" y="690" type="line"/>
      <point x="252" y="690" type="line"/>
      <point x="252" y="430" type="line"/>
      <point x="460" y="430" type="line"/>
      <point x="460" y="690" type="line"/>
      <point x="634" y="690" type="line"/>
      <point x="634" y="0" type="line"/>
      <point x="460" y="0" type="line"/>
      <point x="460" y="273" type="line"/>
      <point x="252" y="273" type="line"/>
      <point x="252" y="0" type="line"/>
    </contour>
  </outline>
</glyph>
<glyph name="Q" format="2">
  <advance width="712"/>
  <unicode hex="0051"/>
  <outline>
    <contour>
      <point x="68" y="176" type="qcurve" smooth="yes"/>
      <point x="68" y="514" type="line" smooth="yes"/>
      <point x="68" y="690"/>
      <point x="244" y="690" type="qcurve" smooth="yes"/>
      <point x="468" y="690" type="line" smooth="yes"/>
      <point x="644" y="690"/>
      <point x="644" y="514" type="qcurve" smooth="yes"/>
      <point x="644" y="176" type="line" smooth="yes"/>
      <point x="644" y="40"/>
      <point x="540" y="10" type="qcurve"/>
      <point x="604" y="-115" type="line"/>
      <point x="584" y="-150" type="line"/>
      <point x="433" y="-150" type="line"/>
      <point x="357" y="0" type="line"/>
      <point x="244" y="0" type="line" smooth="yes"/>
      <point x="68" y="0"/>
    </contour>
    <contour>
      <point x="242" y="168" type="line" smooth="yes"/>
      <point x="242" y="157"/>
      <point x="253" y="157" type="qcurve" smooth="yes"/>
      <point x="459" y="157" type="line" smooth="yes"/>
      <point x="470" y="157"/>
      <point x="470" y="168" type="qcurve" smooth="yes"/>
      <point x="470" y="522" type="line" smooth="yes"/>
      <point x="470" y="533"/>
      <point x="459" y="533" type="qcurve" smooth="yes"/>
      <point x="253" y="533" type="line" smooth="yes"/>
      <point x="242" y="533"/>
      <point x="242" y="522" type="qcurve" smooth="yes"/>
    </contour>
  </outline>
</glyph>
<glyph name="R" format="2">
  <advance width="652"/>
  <unicode hex="0052"/>
  <outline>
    <contour>
      <point x="78" y="0" type="line"/>
      <point x="78" y="690" type="line"/>
      <point x="418" y="690" type="line" smooth="yes"/>
      <point x="594" y="690"/>
      <point x="594" y="514" type="qcurve" smooth="yes"/>
      <point x="594" y="398" type="line" smooth="yes"/>
      <point x="594" y="276"/>
      <point x="510" y="238" type="qcurve"/>
      <point x="614" y="35" type="line"/>
      <point x="594" y="0" type="line"/>
      <point x="444" y="0" type="line"/>
      <point x="330" y="223" type="line"/>
      <point x="252" y="223" type="line"/>
      <point x="252" y="0" type="line"/>
    </contour>
    <contour>
      <point x="252" y="380" type="line"/>
      <point x="409" y="380" type="line" smooth="yes"/>
      <point x="420" y="380"/>
      <point x="420" y="391" type="qcurve" smooth="yes"/>
      <point x="420" y="522" type="line" smooth="yes"/>
      <point x="420" y="533"/>
      <point x="409" y="533" type="qcurve" smooth="yes"/>
      <point x="252" y="533" type="line"/>
    </contour>
  </outline>
</glyph>
<glyph name="U" format="2">
  <advance width="700"/>
  <unicode hex="0055"/>
  <outline>
    <contour>
      <point x="72" y="176" type="qcurve" smooth="yes"/>
      <point x="72" y="690" type="line"/>
      <point x="246" y="690" type="line"/>
      <point x="246" y="168" type="line" smooth="yes"/>
      <point x="246" y="157"/>
      <point x="257" y="157" type="qcurve" smooth="yes"/>
      <point x="443" y="157" type="line" smooth="yes"/>
      <point x="454" y="157"/>
      <point x="454" y="168" type="qcurve" smooth="yes"/>
      <point x="454" y="690" type="line"/>
      <point x="628" y="690" type="line"/>
      <point x="628" y="176" type="line" smooth="yes"/>
      <point x="628" y="0"/>
      <point x="452" y="0" type="qcurve" smooth="yes"/>
      <point x="248" y="0" type="line" smooth="yes"/>
      <point x="72" y="0"/>
    </contour>
  </outline>
</glyph>
<glyph name="X" format="2">
  <advance width="664"/>
  <unicode hex="0058"/>
  <outline>
    <contour>
      <point x="27" y="34" type="line"/>
      <point x="237" y="355" type="line"/>
      <point x="40" y="656" type="line"/>
      <point x="56" y="690" type="line"/>
      <point x="209" y="690" type="line"/>
      <point x="332" y="495" type="line"/>
      <point x="455" y="690" type="line"/>
      <point x="608" y="690" type="line"/>
      <point x="624" y="656" type="line"/>
      <point x="427" y="355" type="line"/>
      <point x="637" y="34" type="line"/>
      <point x="620" y="0" type="line"/>
      <point x="468" y="0" type="line"/>
      <point x="332" y="214" type="line"/>
      <point x="196" y="0" type="line"/>
      <point x="44" y="0" type="line"/>
    </contour>
  </outline>
</glyph>
<glyph name="Z" format="2">
  <advance width="612"/>
  <unicode hex="005A"/>
  <outline>
    <contour>
      <point x="38" y="0" type="line"/>
      <point x="38" y="134" type="line"/>
      <point x="343" y="533" type="line"/>
      <point x="48" y="533" type="line"/>
      <point x="48" y="690" type="line"/>
      <point x="564" y="690" type="line"/>
      <point x="564" y="556" type="line"/>
      <point x="259" y="157" type="line"/>
      <point x="574" y="157" type="line"/>
      <point x="574" y="0" type="line"/>
    </contour>
  </outline>
</glyph>
<glyph name="backslash" format="2">
  <advance width="459"/>
  <unicode hex="005C"/>
  <outline>
    <contour>
      <point x="20" y="702" type="line"/>
      <point x="160" y="752" type="line"/>
      <point x="439" y="-12" type="line"/>
      <point x="300" y="-62" type="line"/>
    </contour>
  </outline>
</glyph>
<glyph name="bracketright" format="2">
  <advance width="403"/>
  <unicode hex="005D"/>
  <outline>
    <contour>
      <point x="30" y="-35" type="line"/>
      <point x="158" y="-35" type="line"/>
      <point x="158" y="615" type="line"/>
      <point x="30" y="615" type="line"/>
      <point x="30" y="760" type="line"/>
      <point x="325" y="760" type="line"/>
      <point x="325" y="-180" type="line"/>
      <point x="30" y="-180" type="line"/>
    </contour>
  </outline>
</glyph>
<glyph name="asciicircum" format="2">
  <advance width="576"/>
  <unicode hex="005E"/>
  <outline>
    <contour>
      <point x="28" y="362" type="line"/>
      <point x="208" y="690" type="line"/>
      <point x="368" y="690" type="line"/>
      <point x="548" y="362" type="line"/>
      <point x="422" y="292" type="line"/>
      <point x="288" y="538" type="line"/>
      <point x="154" y="292" type="line"/>
    </contour>
  </outline>
</glyph>
<glyph name="f" format="2">
  <advance width="428"/>
  <unicode hex="0066"/>
  <outline>
    <contour>
      <point x="68" y="0" type="line"/>
      <point x="68" y="572" type="line" smooth="yes"/>
      <point x="68" y="740"/>
      <point x="236" y="740" type="qcurve" smooth="yes"/>
      <point x="338" y="740" type="line"/>
      <point x="408" y="688" type="line"/>
      <point x="408" y="595" type="line"/>
      <point x="248" y="595" type="line" smooth="yes"/>
      <point x="235" y="595"/>
      <point x="235" y="582" type="qcurve" smooth="yes"/>
      <point x="235" y="532" type="line"/>
      <point x="398" y="532" type="line"/>
      <point x="398" y="387" type="line"/>
      <point x="235" y="387" type="line"/>
      <point x="235" y="0" type="line"/>
    </contour>
  </outline>
</glyph>
<glyph name="g" format="2">
  <advance width="582"/>
  <unicode hex="0067"/>
  <outline>
    <contour>
      <point x="54" y="168" type="qcurve" smooth="yes"/>
      <point x="54" y="364" type="line" smooth="yes"/>
      <point x="54" y="532"/>
      <point x="222" y="532" type="qcurve" smooth="yes"/>
      <point x="520" y="532" type="line"/>
      <point x="520" y="-32" type="line" smooth="yes"/>
      <point x="520" y="-200"/>
      <point x="352" y="-200" type="qcurve" smooth="yes"/>
      <point x="172" y="-200" type="line"/>
      <point x="102" y="-148" type="line"/>
      <point x="102" y="-55" type="line"/>
      <point x="340" y="-55" type="line" smooth="yes"/>
      <point x="353" y="-55"/>
      <point x="353" y="-42" type="qcurve" smooth="yes"/>
      <point x="353" y="0" type="line"/>
      <point x="222" y="0" type="line" smooth="yes"/>
      <point x="54" y="0"/>
    </contour>
    <contour>
      <point x="221" y="158" type="line" smooth="yes"/>
      <point x="221" y="145"/>
      <point x="234" y="145" type="qcurve" smooth="yes"/>
      <point x="353" y="145" type="line"/>
      <point x="353" y="387" type="line"/>
      <point x="234" y="387" type="line" smooth="yes"/>
      <point x="221" y="387"/>
      <point x="221" y="374" type="qcurve" smooth="yes"/>
    </contour>
  </outline>
</glyph>
<glyph name="i" format="2">
  <advance width="303"/>
  <unicode hex="0069"/>
  <outline>
    <contour>
      <point x="66" y="614" type="line"/>
      <point x="66" y="769" type="line"/>
      <point x="237" y="769" type="line"/>
      <point x="237" y="614" type="line"/>
    </contour>
    <contour>
      <point x="68" y="0" type="line"/>
      <point x="68" y="532" type="line"/>
      <point x="235" y="532" type="line"/>
      <point x="235" y="0" type="line"/>
    </contour>
  </outline>
</glyph>
<glyph name="q" format="2">
  <advance width="594"/>
  <unicode hex="0071"/>
  <outline>
    <contour>
      <point x="60" y="168" type="qcurve" smooth="yes"/>
      <point x="60" y="364" type="line" smooth="yes"/>
      <point x="60" y="532"/>
      <point x="228" y="532" type="qcurve" smooth="yes"/>
      <point x="526" y="532" type="line"/>
      <point x="526" y="-200" type="line"/>
      <point x="359" y="-200" type="line"/>
      <point x="359" y="0" type="line"/>
      <point x="228" y="0" type="line" smooth="yes"/>
      <point x="60" y="0"/>
    </contour>
    <contour>
      <point x="227" y="158" type="line" smooth="yes"/>
      <point x="227" y="145"/>
      <point x="240" y="145" type="qcurve" smooth="yes"/>
      <point x="359" y="145" type="line"/>
      <point x="359" y="387" type="line"/>
      <point x="240" y="387" type="line" smooth="yes"/>
      <point x="227" y="387"/>
      <point x="227" y="374" type="qcurve" smooth="yes"/>
    </contour>
  </outline>
</glyph>
<glyph name="t" format="2">
  <advance width="440"/>
  <unicode hex="0074"/>
  <outline>
    <contour>
      <point x="64" y="168" type="qcurve" smooth="yes"/>
      <point x="64" y="690" type="line"/>
      <point x="231" y="690" type="line"/>
      <point x="231" y="532" type="line"/>
      <point x="394" y="532" type="line"/>
      <point x="394" y="387" type="line"/>
      <point x="231" y="387" type="line"/>
      <point x="231" y="158" type="line" smooth="yes"/>
      <point x="231" y="145"/>
      <point x="244" y="145" type="qcurve" smooth="yes"/>
      <point x="404" y="145" type="line"/>
      <point x="404" y="52" type="line"/>
      <point x="334" y="0" type="line"/>
      <point x="232" y="0" type="line" smooth="yes"/>
      <point x="64" y="0"/>
    </contour>
  </outline>
</glyph>
<glyph name="u" format="2">
  <advance width="598"/>
  <unicode hex="0075"/>
  <outline>
    <contour>
      <point x="64" y="168" type="qcurve" smooth="yes"/>
      <point x="64" y="532" type="line"/>
      <point x="231" y="532" type="line"/>
      <point x="231" y="158" type="line" smooth="yes"/>
      <point x="231" y="145"/>
      <point x="244" y="145" type="qcurve" smooth="yes"/>
      <point x="363" y="145" type="line"/>
      <point x="363" y="532" type="line"/>
      <point x="530" y="532" type="line"/>
      <point x="530" y="0" type="line"/>
      <point x="232" y="0" type="line" smooth="yes"/>
      <point x="64" y="0"/>
    </contour>
  </outline>
</glyph>
<glyph name="z" format="2">
  <advance width="522"/>
  <unicode hex="007A"/>
  <outline>
    <contour>
      <point x="38" y="0" type="line"/>
      <point x="38" y="125" type="line"/>
      <point x="259" y="387" type="line"/>
      <point x="48" y="387" type="line"/>
      <point x="48" y="532" type="line"/>
      <point x="474" y="532" type="line"/>
      <point x="474" y="407" type="line"/>
      <point x="254" y="145" type="line"/>
      <point x="484" y="145" type="line"/>
      <point x="484" y="0" type="line"/>
    </contour>
  </outline>
</glyph>
<glyph name="braceright" format="2">
  <advance width="440"/>
  <unicode hex="007D"/>
  <outline>
    <contour>
      <point x="30" y="-35" type="line"/>
      <point x="135" y="-35" type="line" smooth="yes"/>
      <point x="148" y="-35"/>
      <point x="148" y="-22" type="qcurve" smooth="yes"/>
      <point x="148" y="204" type="line"/>
      <point x="226" y="282" type="line"/>
      <point x="148" y="360" type="line"/>
      <point x="148" y="602" type="line" smooth="yes"/>
      <point x="148" y="615"/>
      <point x="135" y="615" type="qcurve" smooth="yes"/>
      <point x="30" y="615" type="line"/>
      <point x="30" y="760" type="line"/>
      <point x="147" y="760" type="line" smooth="yes"/>
      <point x="315" y="760"/>
      <point x="315" y="592" type="qcurve" smooth="yes"/>
      <point x="315" y="398" type="line"/>
      <point x="390" y="324" type="line"/>
      <point x="390" y="242" type="line"/>
      <point x="315" y="166" type="line"/>
      <point x="315" y="-12" type="line" smooth="yes"/>
      <point x="315" y="-180"/>
      <point x="147" y="-180" type="qcurve" smooth="yes"/>
      <point x="30" y="-180" type="line"/>
    </contour>
  </outline>
</glyph>
<glyph name="asciitilde" format="2">
  <advance width="578"/>
  <unicode hex="007E"/>
  <outline>
    <contour>
      <point x="24" y="330" type="line"/>
      <point x="120" y="426" type="line" smooth="yes"/>
      <point x="156" y="462"/>
      <point x="262" y="462"/>
      <point x="298" y="426" type="qcurve" smooth="yes"/>
      <point x="360" y="364" type="line" smooth="yes"/>
      <point x="365" y="359"/>
      <point x="373" y="359"/>
      <point x="378" y="364" type="qcurve" smooth="yes"/>
      <point x="454" y="440" type="line"/>
      <point x="554" y="340" type="line"/>
      <point x="458" y="244" type="line" smooth="yes"/>
      <point x="422" y="208"/>
      <point x="316" y="208"/>
      <point x="280" y="244" type="qcurve" smooth="yes"/>
      <point x="218" y="306" type="line" smooth="yes"/>
      <point x="213" y="311"/>
      <point x="205" y="311"/>
      <point x="200" y="306" type="qcurve" smooth="yes"/>
      <point x="124" y="230" type="line"/>
    </contour>
  </outline>
</glyph>
<glyph name="section" format="2">
  <advance width="546"/>
  <unicode hex="00A7"/>
  <outline>
    <contour>
      <point x="68" y="45" type="line"/>
      <point x="298" y="45" type="line" smooth="yes"/>
      <point x="314" y="45"/>
      <point x="314" y="67" type="qcurve" smooth="yes"/>
      <point x="314" y="90"/>
      <point x="299" y="93" type="qcurve" smooth="yes"/>
      <point x="197" y="110" type="line" smooth="yes"/>
      <point x="68" y="132"/>
      <point x="68" y="263" type="qcurve" smooth="yes"/>
      <point x="68" y="358" type="line"/>
      <point x="116" y="406" type="line"/>
      <point x="68" y="444"/>
      <point x="68" y="521" type="qcurve" smooth="yes"/>
      <point x="68" y="690"/>
      <point x="236" y="690" type="qcurve" smooth="yes"/>
      <point x="386" y="690" type="line"/>
      <point x="456" y="638" type="line"/>
      <point x="456" y="545" type="line"/>
      <point x="250" y="545" type="line" smooth="yes"/>
      <point x="234" y="545"/>
      <point x="234" y="523" type="qcurve" smooth="yes"/>
      <point x="234" y="500"/>
      <point x="248" y="497" type="qcurve" smooth="yes"/>
      <point x="350" y="480" type="line" smooth="yes"/>
      <point x="480" y="458"/>
      <point x="480" y="327" type="qcurve" smooth="yes"/>
      <point x="480" y="232" type="line"/>
      <point x="432" y="184" type="line"/>
      <point x="480" y="146"/>
      <point x="480" y="69" type="qcurve" smooth="yes"/>
      <point x="480" y="-100"/>
      <point x="312" y="-100" type="qcurve" smooth="yes"/>
      <point x="138" y="-100" type="line"/>
      <point x="68" y="-48" type="line"/>
    </contour>
    <contour>
      <point x="234" y="265" type="line" smooth="yes"/>
      <point x="234" y="236"/>
      <point x="248" y="234" type="qcurve" smooth="yes"/>
      <point x="314" y="224" type="line"/>
      <point x="314" y="325" type="line" smooth="yes"/>
      <point x="314" y="354"/>
      <point x="299" y="356" type="qcurve" smooth="yes"/>
      <point x="234" y="366" type="line"/>
    </contour>
  </outline>
</glyph>
<glyph name="copyright" format="2">
  <advance width="846"/>
  <unicode hex="00A9"/>
  <outline>
    <contour>
      <point x="68" y="125" type="qcurve" smooth="yes"/>
      <point x="68" y="565" type="line" smooth="yes"/>
      <point x="68" y="690"/>
      <point x="193" y="690" type="qcurve" smooth="yes"/>
      <point x="653" y="690" type="line" smooth="yes"/>
      <point x="778" y="690"/>
      <point x="778" y="565" type="qcurve" smooth="yes"/>
      <point x="778" y="125" type="line" smooth="yes"/>
      <point x="778" y="0"/>
      <point x="653" y="0" type="qcurve" smooth="yes"/>
      <point x="193" y="0" type="line" smooth="yes"/>
      <point x="68" y="0"/>
    </contour>
    <contour>
      <point x="191" y="115" type="line" smooth="yes"/>
      <point x="191" y="111"/>
      <point x="195" y="111" type="qcurve" smooth="yes"/>
      <point x="651" y="111" type="line" smooth="yes"/>
      <point x="655" y="111"/>
      <point x="655" y="115" type="qcurve" smooth="yes"/>
      <point x="655" y="575" type="line" smooth="yes"/>
      <point x="655" y="579"/>
      <point x="651" y="579" type="qcurve" smooth="yes"/>
      <point x="195" y="579" type="line" smooth="yes"/>
      <point x="191" y="579"/>
      <point x="191" y="575" type="qcurve" smooth="yes"/>
    </contour>
    <contour>
      <point x="256" y="295" type="qcurve" smooth="yes"/>
      <point x="256" y="395" type="line" smooth="yes"/>
      <point x="256" y="528"/>
      <point x="388" y="528" type="qcurve" smooth="yes"/>
      <point x="506" y="528" type="line"/>
      <point x="560" y="485" type="line"/>
      <point x="560" y="410" type="line"/>
      <point x="390" y="410" type="line" smooth="yes"/>
      <point x="386" y="410"/>
      <point x="386" y="406" type="qcurve" smooth="yes"/>
      <point x="386" y="284" type="line" smooth="yes"/>
      <point x="386" y="280"/>
      <point x="390" y="280" type="qcurve" smooth="yes"/>
      <point x="560" y="280" type="line"/>
      <point x="560" y="205" type="line"/>
      <point x="506" y="162" type="line"/>
      <point x="388" y="162" type="line" smooth="yes"/>
      <point x="256" y="162"/>
    </contour>
  </outline>
</glyph>
<glyph name="ordfeminine" format="2">
  <advance width="406"/>
  <unicode hex="00AA"/>
  <outline>
    <contour>
      <point x="31" y="417" type="qcurve" smooth="yes"/>
      <point x="31" y="419" type="line" smooth="yes"/>
      <point x="31" y="542"/>
      <point x="174" y="542" type="qcurve" smooth="yes"/>
      <point x="235" y="542" type="line"/>
      <point x="235" y="568" type="line" smooth="yes"/>
      <point x="235" y="572"/>
      <point x="231" y="572" type="qcurve" smooth="yes"/>
      <point x="73" y="572" type="line"/>
      <point x="73" y="647" type="line"/>
      <point x="128" y="690" type="line"/>
      <point x="232" y="690" type="line" smooth="yes"/>
      <point x="365" y="690"/>
      <point x="365" y="557" type="qcurve" smooth="yes"/>
      <point x="365" y="294" type="line"/>
      <point x="174" y="294" type="line" smooth="yes"/>
      <point x="31" y="294"/>
    </contour>
    <contour>
      <point x="161" y="416" type="line" smooth="yes"/>
      <point x="161" y="412"/>
      <point x="165" y="412" type="qcurve" smooth="yes"/>
      <point x="235" y="412" type="line"/>
      <point x="235" y="442" type="line"/>
      <point x="165" y="442" type="line" smooth="yes"/>
      <point x="161" y="442"/>
      <point x="161" y="438" type="qcurve" smooth="yes"/>
    </contour>
  </outline>
</glyph>
<glyph name="registered" format="2">
  <advance width="846"/>
  <unicode hex="00AE"/>
  <outline>
    <contour>
      <point x="68" y="125" type="qcurve" smooth="yes"/>
      <point x="68" y="565" type="line" smooth="yes"/>
      <point x="68" y="690"/>
      <point x="193" y="690" type="qcurve" smooth="yes"/>
      <point x="653" y="690" type="line" smooth="yes"/>
      <point x="778" y="690"/>
      <point x="778" y="565" type="qcurve" smooth="yes"/>
      <point x="778" y="125" type="line" smooth="yes"/>
      <point x="778" y="0"/>
      <point x="653" y="0" type="qcurve" smooth="yes"/>
      <point x="193" y="0" type="line" smooth="yes"/>
      <point x="68" y="0"/>
    </contour>
    <contour>
      <point x="191" y="115" type="line" smooth="yes"/>
      <point x="191" y="111"/>
      <point x="195" y="111" type="qcurve" smooth="yes"/>
      <point x="651" y="111" type="line" smooth="yes"/>
      <point x="655" y="111"/>
      <point x="655" y="115" type="qcurve" smooth="yes"/>
      <point x="655" y="575" type="line" smooth="yes"/>
      <point x="655" y="579"/>
      <point x="651" y="579" type="qcurve" smooth="yes"/>
      <point x="195" y="579" type="line" smooth="yes"/>
      <point x="191" y="579"/>
      <point x="191" y="575" type="qcurve" smooth="yes"/>
    </contour>
    <contour>
      <point x="268" y="162" type="line"/>
      <point x="268" y="528" type="line"/>
      <point x="448" y="528" type="line" smooth="yes"/>
      <point x="582" y="528"/>
      <point x="582" y="395" type="qcurve" smooth="yes"/>
      <point x="582" y="390" type="line" smooth="yes"/>
      <point x="582" y="314"/>
      <point x="538" y="278" type="qcurve"/>
      <point x="582" y="189" type="line"/>
      <point x="568" y="162" type="line"/>
      <point x="454" y="162" type="line"/>
      <point x="406" y="258" type="line"/>
      <point x="398" y="258" type="line"/>
      <point x="398" y="162" type="line"/>
    </contour>
    <contour>
      <point x="398" y="376" type="line"/>
      <point x="448" y="376" type="line" smooth="yes"/>
      <point x="452" y="376"/>
      <point x="452" y="380" type="qcurve" smooth="yes"/>
      <point x="452" y="406" type="line" smooth="yes"/>
      <point x="452" y="410"/>
      <point x="448" y="410" type="qcurve" smooth="yes"/>
      <point x="398" y="410" type="line"/>
    </contour>
  </outline>
</glyph>
<glyph name="degree" format="2">
  <advance width="413"/>
  <unicode hex="00B0"/>
  <outline>
    <contour>
      <point x="48" y="495" type="qcurve" smooth="yes"/>
      <point x="48" y="565" type="line" smooth="yes"/>
      <point x="48" y="690"/>
      <point x="173" y="690" type="qcurve" smooth="yes"/>
      <point x="240" y="690" type="line" smooth="yes"/>
      <point x="365" y="690"/>
      <point x="365" y="565" type="qcurve" smooth="yes"/>
      <point x="365" y="495" type="line" smooth="yes"/>
      <point x="365" y="370"/>
      <point x="240" y="370" type="qcurve" smooth="yes"/>
      <point x="173" y="370" type="line" smooth="yes"/>
      <point x="48" y="370"/>
    </contour>
    <contour>
      <point x="171" y="485" type="line" smooth="yes"/>
      <point x="171" y="481"/>
      <point x="175" y="481" type="qcurve" smooth="yes"/>
      <point x="238" y="481" type="line" smooth="yes"/>
      <point x="242" y="481"/>
      <point x="242" y="485" type="qcurve" smooth="yes"/>
      <point x="242" y="575" type="line" smooth="yes"/>
      <point x="242" y="579"/>
      <point x="238" y="579" type="qcurve" smooth="yes"/>
      <point x="175" y="579" type="line" smooth="yes"/>
      <point x="171" y="579"/>
      <point x="171" y="575" type="qcurve" smooth="yes"/>
    </contour>
  </outline>
</glyph>
<glyph name="plusminus" format="2">
  <advance width="578"/>
  <unicode hex="00B1"/>
  <outline>
    <contour>
      <point x="58" y="0" type="line"/>
      <point x="58" y="142" type="line"/>
      <point x="520" y="142" type="line"/>
      <point x="520" y="0" type="line"/>
    </contour>
    <contour>
      <point x="58" y="314" type="line"/>
      <point x="58" y="456" type="line"/>
      <point x="214" y="456" type="line"/>
      <point x="214" y="604" type="line"/>
      <point x="364" y="604" type="line"/>
      <point x="364" y="456" type="line"/>
      <point x="520" y="456" type="line"/>
      <point x="520" y="314" type="line"/>
      <point x="364" y="314" type="line"/>
      <point x="364" y="166" type="line"/>
      <point x="214" y="166" type="line"/>
      <point x="214" y="314" type="line"/>
    </contour>
  </outline>
</glyph>
<glyph name="uni00B3" format="2">
  <advance width="369"/>
  <unicode hex="00B3"/>
  <outline>
    <contour>
      <point x="37" y="314" type="line"/>
      <point x="37" y="389" type="line"/>
      <point x="204" y="389" type="line" smooth="yes"/>
      <point x="208" y="389"/>
      <point x="208" y="393" type="qcurve" smooth="yes"/>
      <point x="208" y="419" type="line" smooth="yes"/>
      <point x="208" y="423"/>
      <point x="204" y="423" type="qcurve" smooth="yes"/>
      <point x="81" y="423" type="line"/>
      <point x="81" y="541" type="line"/>
      <point x="204" y="541" type="line" smooth="yes"/>
      <point x="208" y="541"/>
      <point x="208" y="545" type="qcurve" smooth="yes"/>
      <point x="208" y="568" type="line" smooth="yes"/>
      <point x="208" y="572"/>
      <point x="204" y="572" type="qcurve" smooth="yes"/>
      <point x="43" y="572" type="line"/>
      <point x="43" y="647" type="line"/>
      <point x="98" y="690" type="line"/>
      <point x="205" y="690" type="line" smooth="yes"/>
      <point x="338" y="690"/>
      <point x="338" y="557" type="qcurve" smooth="yes"/>
      <point x="338" y="548" type="line" smooth="yes"/>
      <point x="338" y="521"/>
      <point x="321" y="504" type="qcurve" smooth="yes"/>
      <point x="298" y="481" type="line"/>
      <point x="321" y="458" type="line" smooth="yes"/>
      <point x="338" y="441"/>
      <point x="338" y="414" type="qcurve" smooth="yes"/>
      <point x="338" y="404" type="line" smooth="yes"/>
      <point x="338" y="271"/>
      <point x="205" y="271" type="qcurve" smooth="yes"/>
      <point x="92" y="271" type="line"/>
    </contour>
  </outline>
</glyph>
<glyph name="mu" format="2">
  <advance width="598"/>
  <unicode hex="00B5"/>
  <outline>
    <contour>
      <point x="68" y="-200" type="line"/>
      <point x="68" y="532" type="line"/>
      <point x="235" y="532" type="line"/>
      <point x="235" y="145" type="line"/>
      <point x="354" y="145" type="line" smooth="yes"/>
      <point x="367" y="145"/>
      <point x="367" y="158" type="qcurve" smooth="yes"/>
      <point x="367" y="532" type="line"/>
      <point x="534" y="532" type="line"/>
      <point x="534" y="168" type="line" smooth="yes"/>
      <point x="534" y="0"/>
      <point x="366" y="0" type="qcurve" smooth="yes"/>
      <point x="235" y="0" type="line"/>
      <point x="235" y="-200" type="line"/>
    </contour>
  </outline>
</glyph>
<glyph name="paragraph" format="2">
  <advance width="688"/>
  <unicode hex="00B6"/>
  <outline>
    <contour>
      <point x="58" y="345" type="qcurve" smooth="yes"/>
      <point x="58" y="540" type="line" smooth="yes"/>
      <point x="58" y="690"/>
      <point x="208" y="690" type="qcurve" smooth="yes"/>
      <point x="363" y="690" type="line"/>
      <point x="363" y="195" type="line"/>
      <point x="208" y="195" type="line" smooth="yes"/>
      <point x="58" y="195"/>
    </contour>
    <contour>
      <point x="433" y="-170" type="line"/>
      <point x="433" y="690" type="line"/>
      <point x="600" y="690" type="line"/>
      <point x="600" y="-170" type="line"/>
    </contour>
  </outline>
</glyph>
<glyph name="uni00B9" format="2">
  <advance width="369"/>
  <unicode hex="00B9"/>
  <outline>
    <contour>
      <point x="49" y="271" type="line"/>
      <point x="49" y="389" type="line"/>
      <point x="130" y="389" type="line"/>
      <point x="130" y="572" type="line"/>
      <point x="61" y="572" type="line"/>
      <point x="61" y="647" type="line"/>
      <point x="116" y="690" type="line"/>
      <point x="260" y="690" type="line"/>
      <point x="260" y="389" type="line"/>
      <point x="332" y="389" type="line"/>
      <point x="332" y="271" type="line"/>
    </contour>
  </outline>
</glyph>
<glyph name="questiondown" format="2">
  <advance width="516"/>
  <unicode hex="00BF"/>
  <outline>
    <contour>
      <point x="50" y="18" type="qcurve" smooth="yes"/>
      <point x="50" y="88" type="line" smooth="yes"/>
      <point x="50" y="274"/>
      <point x="216" y="274" type="qcurve" smooth="yes"/>
      <point x="220" y="274" type="line"/>
      <point x="220" y="304" type="line"/>
      <point x="393" y="304" type="line"/>
      <point x="393" y="117" type="line"/>
      <point x="235" y="117" type="line" smooth="yes"/>
      <point x="224" y="117"/>
      <point x="224" y="106" type="qcurve" smooth="yes"/>
      <point x="224" y="10" type="line" smooth="yes"/>
      <point x="224" y="-1"/>
      <point x="235" y="-1" type="qcurve" smooth="yes"/>
      <point x="496" y="-1" type="line"/>
      <point x="496" y="-98" type="line"/>
      <point x="418" y="-158" type="line"/>
      <point x="226" y="-158" type="line" smooth="yes"/>
      <point x="50" y="-158"/>
    </contour>
    <contour>
      <point x="218" y="371" type="line"/>
      <point x="218" y="532" type="line"/>
      <point x="394" y="532" type="line"/>
      <point x="394" y="371" type="line"/>
    </contour>
  </outline>
</glyph>
<glyph name="Eth" format="2">
  <advance width="711"/>
  <unicode hex="00D0"/>
  <outline>
    <contour>
      <point x="20" y="276" type="line"/>
      <point x="20" y="414" type="line"/>
      <point x="97" y="414" type="line"/>
      <point x="97" y="690" type="line"/>
      <point x="384" y="690" type="line" smooth="yes"/>
      <point x="653" y="690"/>
      <point x="653" y="421" type="qcurve" smooth="yes"/>
      <point x="653" y="269" type="line" smooth="yes"/>
      <point x="653" y="0"/>
      <point x="384" y="0" type="qcurve" smooth="yes"/>
      <point x="97" y="0" type="line"/>
      <point x="97" y="276" type="line"/>
    </contour>
    <contour>
      <point x="271" y="157" type="line"/>
      <point x="384" y="157" type="line" smooth="yes"/>
      <point x="479" y="157"/>
      <point x="479" y="252" type="qcurve" smooth="yes"/>
      <point x="479" y="438" type="line" smooth="yes"/>
      <point x="479" y="533"/>
      <point x="384" y="533" type="qcurve" smooth="yes"/>
      <point x="271" y="533" type="line"/>
      <point x="271" y="414" type="line"/>
      <point x="375" y="414" type="line"/>
      <point x="375" y="276" type="line"/>
      <point x="271" y="276" type="line"/>
    </contour>
  </outline>
</glyph>
<glyph name="multiply" format="2">
  <advance width="578"/>
  <unicode hex="00D7"/>
  <outline>
    <contour>
      <point x="58" y="206" type="line"/>
      <point x="188" y="335" type="line"/>
      <point x="58" y="464" type="line"/>
      <point x="160" y="566" type="line"/>
      <point x="289" y="436" type="line"/>
      <point x="418" y="566" type="line"/>
      <point x="520" y="464" type="line"/>
      <point x="390" y="335" type="line"/>
      <point x="520" y="206" type="line"/>
      <point x="418" y="104" type="line"/>
      <point x="289" y="234" type="line"/>
      <point x="160" y="104" type="line"/>
    </contour>
  </outline>
</glyph>
<glyph name="germandbls" format="2">
  <advance width="629"/>
  <unicode hex="00DF"/>
  <outline>
    <contour>
      <point x="68" y="0" type="line"/>
      <point x="68" y="572" type="line" smooth="yes"/>
      <point x="68" y="740"/>
      <point x="236" y="740" type="qcurve" smooth="yes"/>
      <point x="381" y="740" type="line" smooth="yes"/>
      <point x="549" y="740"/>
      <point x="549" y="572" type="qcurve" smooth="yes"/>
      <point x="549" y="491" type="line" smooth="yes"/>
      <point x="549" y="457"/>
      <point x="529" y="433" type="qcurve" smooth="yes"/>
      <point x="494" y="391" type="line"/>
      <point x="536" y="356" type="line" smooth="yes"/>
      <point x="569" y="328"/>
      <point x="569" y="276" type="qcurve" smooth="yes"/>
      <point x="569" y="168" type="line" smooth="yes"/>
      <point x="569" y="0"/>
      <point x="401" y="0" type="qcurve" smooth="yes"/>
      <point x="353" y="0" type="line"/>
      <point x="283" y="52" type="line"/>
      <point x="283" y="145" type="line"/>
      <point x="389" y="145" type="line" smooth="yes"/>
      <point x="402" y="145"/>
      <point x="402" y="158" type="qcurve" smooth="yes"/>
      <point x="402" y="300" type="line" smooth="yes"/>
      <point x="402" y="312"/>
      <point x="389" y="312" type="qcurve" smooth="yes"/>
      <point x="293" y="312" type="line"/>
      <point x="293" y="458" type="line"/>
      <point x="369" y="458" type="line" smooth="yes"/>
      <point x="382" y="458"/>
      <point x="382" y="470" type="qcurve" smooth="yes"/>
      <point x="382" y="582" type="line" smooth="yes"/>
      <point x="382" y="595"/>
      <point x="369" y="595" type="qcurve" smooth="yes"/>
      <point x="248" y="595" type="line" smooth="yes"/>
      <point x="235" y="595"/>
      <point x="235" y="582" type="qcurve" smooth="yes"/>
      <point x="235" y="0" type="line"/>
    </contour>
  </outline>
</glyph>
<glyph name="divide" format="2">
  <advance width="578"/>
  <unicode hex="00F7"/>
  <outline>
    <contour>
      <point x="58" y="264" type="line"/>
      <point x="58" y="406" type="line"/>
      <point x="520" y="406" type="line"/>
      <point x="520" y="264" type="line"/>
    </contour>
    <contour>
      <point x="222" y="78" type="line"/>
      <point x="222" y="212" type="line"/>
      <point x="356" y="212" type="line"/>
      <point x="356" y="78" type="line"/>
    </contour>
    <contour>
      <point x="222" y="458" type="line"/>
      <point x="222" y="592" type="line"/>
      <point x="356" y="592" type="line"/>
      <point x="356" y="458" type="line"/>
    </contour>
  </outline>
</glyph>
<glyph name="dotlessi" format="2">
  <advance width="303"/>
  <unicode hex="0131"/>
  <outline>
    <contour>
      <point x="68" y="0" type="line"/>
      <point x="68" y="532" type="line"/>
      <point x="235" y="532" type="line"/>
      <point x="235" y="0" type="line"/>
    </contour>
  </outline>
</glyph>
<glyph name="Lslash" format="2">
  <advance width="594"/>
  <unicode hex="0141"/>
  <outline>
    <contour>
      <point x="10" y="312" type="line"/>
      <point x="116" y="372" type="line"/>
      <point x="116" y="690" type="line"/>
      <point x="290" y="690" type="line"/>
      <point x="290" y="473" type="line"/>
      <point x="395" y="534" type="line"/>
      <point x="462" y="417" type="line"/>
      <point x="290" y="317" type="line"/>
      <point x="290" y="157" type="line"/>
      <point x="570" y="157" type="line"/>
      <point x="570" y="0" type="line"/>
      <point x="116" y="0" type="line"/>
      <point x="116" y="217" type="line"/>
      <point x="78" y="194" type="line"/>
    </contour>
  </outline>
</glyph>
<glyph name="florin" format="2">
  <advance width="582"/>
  <unicode hex="0192"/>
  <outline>
    <contour>
      <point x="40" y="-28" type="line"/>
      <point x="165" y="-28" type="line" smooth="yes"/>
      <point x="178" y="-28"/>
      <point x="178" y="-15" type="qcurve" smooth="yes"/>
      <point x="178" y="572" type="line" smooth="yes"/>
      <point x="178" y="740"/>
      <point x="346" y="740" type="qcurve" smooth="yes"/>
      <point x="448" y="740" type="line"/>
      <point x="518" y="688" type="line"/>
      <point x="518" y="595" type="line"/>
      <point x="358" y="595" type="line" smooth="yes"/>
      <point x="345" y="595"/>
      <point x="345" y="582" type="qcurve" smooth="yes"/>
      <point x="345" y="532" type="line"/>
      <point x="508" y="532" type="line"/>
      <point x="508" y="387" type="line"/>
      <point x="345" y="387" type="line"/>
      <point x="345" y="-5" type="line" smooth="yes"/>
      <point x="345" y="-173"/>
      <point x="177" y="-173" type="qcurve" smooth="yes"/>
      <point x="110" y="-173" type="line"/>
      <point x="40" y="-120" type="line"/>
    </contour>
  </outline>
</glyph>
<glyph name="uni0237" format="2">
  <advance width="303"/>
  <unicode hex="0237"/>
  <outline>
    <contour>
      <point x="-11" y="-70" type="line"/>
      <point x="68" y="-64"/>
      <point x="68" y="14" type="qcurve" smooth="yes"/>
      <point x="68" y="532" type="line"/>
      <point x="235" y="532" type="line"/>
      <point x="235" y="35" type="line" smooth="yes"/>
      <point x="235" y="-211"/>
      <point x="-11" y="-211" type="qcurve"/>
    </contour>
  </outline>
</glyph>
<glyph name="uni0301" format="2">
  <unicode hex="0301"/>
  <outline>
    <contour>
      <point x="-388" y="652" type="line"/>
      <point x="-246" y="815" type="line"/>
      <point x="-158" y="732" type="line"/>
      <point x="-311" y="578" type="line"/>
    </contour>
  </outline>
</glyph>
<glyph name="uni030A" format="2">
  <unicode hex="030A"/>
  <outline>
    <contour>
      <point x="-415" y="652" type="qcurve" smooth="yes"/>
      <point x="-415" y="712" type="line" smooth="yes"/>
      <point x="-415" y="796"/>
      <point x="-330" y="796" type="qcurve" smooth="yes"/>
      <point x="-254" y="796" type="line" smooth="yes"/>
      <point x="-169" y="796"/>
      <point x="-169" y="712" type="qcurve" smooth="yes"/>
      <point x="-169" y="652" type="line" smooth="yes"/>
      <point x="-169" y="568"/>
      <point x="-254" y="568" type="qcurve" smooth="yes"/>
      <point x="-330" y="568" type="line" smooth="yes"/>
      <point x="-415" y="568"/>
    </contour>
    <contour>
      <point x="-324" y="650" type="line" smooth="yes"/>
      <point x="-324" y="646"/>
      <point x="-320" y="646" type="qcurve" smooth="yes"/>
      <point x="-264" y="646" type="line" smooth="yes"/>
      <point x="-260" y="646"/>
      <point x="-260" y="650" type="qcurve" smooth="yes"/>
      <point x="-260" y="714" type="line" smooth="yes"/>
      <point x="-260" y="718"/>
      <point x="-264" y="718" type="qcurve" smooth="yes"/>
      <point x="-320" y="718" type="line" smooth="yes"/>
      <point x="-324" y="718"/>
      <point x="-324" y="714" type="qcurve" smooth="yes"/>
    </contour>
  </outline>
</glyph>
<glyph name="uni030C" format="2">
  <unicode hex="030C"/>
  <outline>
    <contour>
      <point x="-458" y="732" type="line"/>
      <point x="-390" y="805" type="line"/>
      <point x="-292" y="712" type="line"/>
      <point x="-194" y="805" type="line"/>
      <point x="-126" y="732" type="line"/>
      <point x="-292" y="569" type="line"/>
    </contour>
  </outline>
</glyph>
<glyph name="uni0326" format="2">
  <unicode hex="0326"/>
  <outline>
    <contour>
      <point x="-389" y="-176" type="line"/>
      <point x="-360" y="-50" type="line"/>
      <point x="-240" y="-50" type="line"/>
      <point x="-223" y="-74" type="line"/>
      <point x="-278" y="-208" type="line"/>
    </contour>
  </outline>
</glyph>
<glyph name="uni0327" format="2">
  <unicode hex="0327"/>
  <outline>
    <contour>
      <point x="-405" y="-74" type="line"/>
      <point x="-304" y="-74" type="line" smooth="yes"/>
      <point x="-300" y="-74"/>
      <point x="-300" y="-70" type="qcurve" smooth="yes"/>
      <point x="-300" y="72" type="line"/>
      <point x="-173" y="72" type="line"/>
      <point x="-173" y="-56" type="line" smooth="yes"/>
      <point x="-173" y="-189"/>
      <point x="-306" y="-189" type="qcurve" smooth="yes"/>
      <point x="-350" y="-189" type="line"/>
      <point x="-405" y="-146" type="line"/>
    </contour>
  </outline>
</glyph>
<glyph name="pi" format="2">
  <advance width="602"/>
  <unicode hex="03C0"/>
  <outline>
    <contour>
      <point x="68" y="0" type="line"/>
      <point x="68" y="532" type="line"/>
      <point x="534" y="532" type="line"/>
      <point x="534" y="0" type="line"/>
      <point x="367" y="0" type="line"/>
      <point x="367" y="387" type="line"/>
      <point x="235" y="387" type="line"/>
      <point x="235" y="0" type="line"/>
    </contour>
  </outline>
</glyph>
<glyph name="quoteleft" format="2">
  <advance width="287"/>
  <unicode hex="2018"/>
  <outline>
    <contour>
      <point x="24" y="474" type="line"/>
      <point x="135" y="765" type="line"/>
      <point x="258" y="734" type="line"/>
      <point x="184" y="449" type="line"/>
      <point x="40" y="449" type="line"/>
    </contour>
  </outline>
</glyph>
<glyph name="quotesinglbase" format="2">
  <advance width="287"/>
  <unicode hex="201A"/>
  <outline>
    <contour>
      <point x="17" y="-124" type="line"/>
      <point x="91" y="161" type="line"/>
      <point x="234" y="161" type="line"/>
      <point x="251" y="136" type="line"/>
      <point x="140" y="-155" type="line"/>
    </contour>
  </outline>
</glyph>
<glyph name="guilsinglright" format="2">
  <advance width="368"/>
  <unicode hex="203A"/>
  <outline>
    <contour>
      <point x="40" y="153" type="line"/>
      <point x="164" y="315" type="line"/>
      <point x="40" y="477" type="line"/>
      <point x="142" y="561" type="line"/>
      <point x="338" y="315" type="line"/>
      <point x="142" y="69" type="line"/>
    </contour>
  </outline>
</glyph>
<glyph name="fraction" format="2">
  <advance width="155"/>
  <unicode hex="2044"/>
  <outline>
    <contour>
      <point x="-148" y="45" type="line"/>
      <point x="182" y="705" type="line"/>
      <point x="302" y="645" type="line"/>
      <point x="-28" y="-15" type="line"/>
    </contour>
  </outline>
</glyph>
<glyph name="uni2074" format="2">
  <advance width="369"/>
  <unicode hex="2074"/>
  <outline>
    <contour>
      <point x="31" y="313" type="line"/>
      <point x="31" y="422" type="line"/>
      <point x="126" y="690" type="line"/>
      <point x="237" y="690" type="line"/>
      <point x="251" y="666" type="line"/>
      <point x="175" y="431" type="line"/>
      <point x="208" y="431" type="line"/>
      <point x="208" y="506" type="line"/>
      <point x="338" y="506" type="line"/>
      <point x="338" y="271" type="line"/>
      <point x="208" y="271" type="line"/>
      <point x="208" y="313" type="line"/>
    </contour>
  </outline>
</glyph>
<glyph name="Euro" format="2">
  <advance width="578"/>
  <unicode hex="20AC"/>
  <outline>
    <contour>
      <point x="19" y="227" type="line"/>
      <point x="19" y="319" type="line"/>
      <point x="86" y="319" type="line"/>
      <point x="86" y="371" type="line"/>
      <point x="19" y="371" type="line"/>
      <point x="19" y="463" type="line"/>
      <point x="86" y="463" type="line"/>
      <point x="86" y="514" type="line" smooth="yes"/>
      <point x="86" y="690"/>
      <point x="262" y="690" type="qcurve" smooth="yes"/>
      <point x="471" y="690" type="line"/>
      <point x="549" y="630" type="line"/>
      <point x="549" y="533" type="line"/>
      <point x="271" y="533" type="line" smooth="yes"/>
      <point x="260" y="533"/>
      <point x="260" y="522" type="qcurve" smooth="yes"/>
      <point x="260" y="463" type="line"/>
      <point x="475" y="463" type="line"/>
      <point x="475" y="371" type="line"/>
      <point x="260" y="371" type="line"/>
      <point x="260" y="319" type="line"/>
      <point x="431" y="319" type="line"/>
      <point x="431" y="227" type="line"/>
      <point x="260" y="227" type="line"/>
      <point x="260" y="168" type="line" smooth="yes"/>
      <point x="260" y="157"/>
      <point x="271" y="157" type="qcurve" smooth="yes"/>
      <point x="549" y="157" type="line"/>
      <point x="549" y="60" type="line"/>
      <point x="471" y="0" type="line"/>
      <point x="262" y="0" type="line" smooth="yes"/>
      <point x="86" y="0"/>
      <point x="86" y="176" type="qcurve" smooth="yes"/>
      <point x="86" y="227" type="line"/>
    </contour>
  </outline>
</glyph>
<glyph name="uni20BA" format="2">
  <advance width="578"/>
  <unicode hex="20BA"/>
  <outline>
    <contour>
      <point x="21" y="311" type="line"/>
      <point x="106" y="345" type="line"/>
      <point x="106" y="402" type="line"/>
      <point x="55" y="382" type="line"/>
      <point x="21" y="467" type="line"/>
      <point x="106" y="501" type="line"/>
      <point x="106" y="690" type="line"/>
      <point x="280" y="690" type="line"/>
      <point x="280" y="571" type="line"/>
      <point x="420" y="627" type="line"/>
      <point x="454" y="542" type="line"/>
      <point x="280" y="472" type="line"/>
      <point x="280" y="415" type="line"/>
      <point x="420" y="471" type="line"/>
      <point x="454" y="386" type="line"/>
      <point x="280" y="316" type="line"/>
      <point x="280" y="157" type="line"/>
      <point x="284" y="157" type="line" smooth="yes"/>
      <point x="374" y="157"/>
      <point x="374" y="262" type="qcurve" smooth="yes"/>
      <point x="374" y="300" type="line"/>
      <point x="542" y="300" type="line"/>
      <point x="542" y="278" type="line" smooth="yes"/>
      <point x="542" y="0"/>
      <point x="274" y="0" type="qcurve" smooth="yes"/>
      <point x="106" y="0" type="line"/>
      <point x="106" y="246" type="line"/>
      <point x="55" y="226" type="line"/>
    </contour>
  </outline>
</glyph>
<glyph name="uni20BD" format="2">
  <advance width="578"/>
  <unicode hex="20BD"/>
  <outline>
    <contour>
      <point x="26" y="86" type="line"/>
      <point x="26" y="212" type="line"/>
      <point x="76" y="212" type="line"/>
      <point x="76" y="272" type="line"/>
      <point x="26" y="272" type="line"/>
      <point x="26" y="418" type="line"/>
      <point x="76" y="418" type="line"/>
      <point x="76" y="690" type="line"/>
      <point x="366" y="690" type="line" smooth="yes"/>
      <point x="542" y="690"/>
      <point x="542" y="514" type="qcurve" smooth="yes"/>
      <point x="542" y="448" type="line" smooth="yes"/>
      <point x="542" y="272"/>
      <point x="366" y="272" type="qcurve" smooth="yes"/>
      <point x="250" y="272" type="line"/>
      <point x="250" y="212" type="line"/>
      <point x="416" y="212" type="line"/>
      <point x="416" y="86" type="line"/>
      <point x="250" y="86" type="line"/>
      <point x="250" y="0" type="line"/>
      <point x="76" y="0" type="line"/>
      <point x="76" y="86" type="line"/>
    </contour>
    <contour>
      <point x="250" y="418" type="line"/>
      <point x="357" y="418" type="line" smooth="yes"/>
      <point x="368" y="418"/>
      <point x="368" y="428" type="qcurve" smooth="yes"/>
      <point x="368" y="522" type="line" smooth="yes"/>
      <point x="368" y="533"/>
      <point x="357" y="533" type="qcurve" smooth="yes"/>
      <point x="250" y="533" type="line"/>
    </contour>
  </outline>
</glyph>
<glyph name="trademark" format="2">
  <advance width="800"/>
  <unicode hex="2122"/>
  <outline>
    <contour>
      <point x="20" y="579" type="line"/>
      <point x="20" y="690" type="line"/>
      <point x="316" y="690" type="line"/>
      <point x="316" y="579" type="line"/>
      <point x="230" y="579" type="line"/>
      <point x="230" y="331" type="line"/>
      <point x="106" y="331" type="line"/>
      <point x="106" y="579" type="line"/>
    </contour>
    <contour>
      <point x="339" y="331" type="line"/>
      <point x="339" y="690" type="line"/>
      <point x="476" y="690" type="line"/>
      <point x="546" y="540" type="line"/>
      <point x="616" y="690" type="line"/>
      <point x="752" y="690" type="line"/>
      <point x="752" y="331" type="line"/>
      <point x="629" y="331" type="line"/>
      <point x="629" y="453" type="line"/>
      <point x="590" y="370" type="line"/>
      <point x="500" y="370" type="line"/>
      <point x="462" y="453" type="line"/>
      <point x="462" y="331" type="line"/>
    </contour>
  </outline>
</glyph>
<glyph name="estimated" format="2">
  <advance width="880"/>
  <unicode hex="212E"/>
  <outline>
    <contour>
      <point x="820" y="325" type="qcurve"/>
      <point x="200" y="325" type="line"/>
      <point x="200" y="127" type="line"/>
      <point x="305" y="25"/>
      <point x="575" y="25"/>
      <point x="687" y="133" type="qcurve"/>
      <point x="719" y="100" type="line"/>
      <point x="597" y="-15"/>
      <point x="283" y="-15"/>
      <point x="60" y="196"/>
      <point x="60" y="494"/>
      <point x="283" y="705"/>
      <point x="597" y="705"/>
      <point x="820" y="494"/>
    </contour>
    <contour>
      <point x="200" y="365" type="line"/>
      <point x="680" y="365" type="line"/>
      <point x="680" y="563" type="line"/>
      <point x="575" y="665"/>
      <point x="305" y="665"/>
      <point x="200" y="563" type="qcurve"/>
    </contour>
  </outline>
</glyph>
<glyph name="partialdiff" format="2">
  <advance width="590"/>
  <unicode hex="2202"/>
  <outline>
    <contour>
      <point x="60" y="168" type="qcurve" smooth="yes"/>
      <point x="60" y="322" type="line" smooth="yes"/>
      <point x="60" y="490"/>
      <point x="228" y="490" type="qcurve" smooth="yes"/>
      <point x="359" y="490" type="line"/>
      <point x="359" y="498" type="line" smooth="yes"/>
      <point x="359" y="595"/>
      <point x="262" y="595" type="qcurve" smooth="yes"/>
      <point x="104" y="595" type="line"/>
      <point x="104" y="688" type="line"/>
      <point x="174" y="740" type="line"/>
      <point x="257" y="740" type="line" smooth="yes"/>
      <point x="526" y="740"/>
      <point x="526" y="471" type="qcurve" smooth="yes"/>
      <point x="526" y="168" type="line" smooth="yes"/>
      <point x="526" y="0"/>
      <point x="358" y="0" type="qcurve" smooth="yes"/>
      <point x="228" y="0" type="line" smooth="yes"/>
      <point x="60" y="0"/>
    </contour>
    <contour>
      <point x="227" y="158" type="line" smooth="yes"/>
      <point x="227" y="145"/>
      <point x="240" y="145" type="qcurve" smooth="yes"/>
      <point x="346" y="145" type="line" smooth="yes"/>
      <point x="359" y="145"/>
      <point x="359" y="158" type="qcurve" smooth="yes"/>
      <point x="359" y="345" type="line"/>
      <point x="240" y="345" type="line" smooth="yes"/>
      <point x="227" y="345"/>
      <point x="227" y="332" type="qcurve" smooth="yes"/>
    </contour>
  </outline>
</glyph>
<glyph name="Delta" format="2">
  <advance width="694"/>
  <unicode hex="2206"/>
  <outline>
    <contour>
      <point x="17" y="32" type="line"/>
      <point x="209" y="690" type="line"/>
      <point x="485" y="690" type="line"/>
      <point x="677" y="32" type="line"/>
      <point x="656" y="0" type="line"/>
      <point x="38" y="0" type="line"/>
    </contour>
    <contour>
      <point x="228" y="157" type="line"/>
      <point x="466" y="157" type="line"/>
      <point x="360" y="533" type="line"/>
      <point x="334" y="533" type="line"/>
    </contour>
  </outline>
</glyph>
<glyph name="minus" format="2">
  <advance width="578"/>
  <unicode hex="2212"/>
  <outline>
    <contour>
      <point x="58" y="264" type="line"/>
      <point x="58" y="406" type="line"/>
      <point x="520" y="406" type="line"/>
      <point x="520" y="264" type="line"/>
    </contour>
  </outline>
</glyph>
<glyph name="infinity" format="2">
  <advance width="616"/>
  <unicode hex="221E"/>
  <outline>
    <contour>
      <point x="28" y="303" type="qcurve" smooth="yes"/>
      <point x="28" y="367" type="line" smooth="yes"/>
      <point x="28" y="500"/>
      <point x="161" y="500" type="qcurve" smooth="yes"/>
      <point x="236" y="500" type="line" smooth="yes"/>
      <point x="274" y="500"/>
      <point x="308" y="466" type="qcurve"/>
      <point x="342" y="500"/>
      <point x="380" y="500" type="qcurve" smooth="yes"/>
      <point x="455" y="500" type="line" smooth="yes"/>
      <point x="588" y="500"/>
      <point x="588" y="367" type="qcurve" smooth="yes"/>
      <point x="588" y="303" type="line" smooth="yes"/>
      <point x="588" y="170"/>
      <point x="455" y="170" type="qcurve" smooth="yes"/>
      <point x="380" y="170" type="line" smooth="yes"/>
      <point x="342" y="170"/>
      <point x="308" y="204" type="qcurve"/>
      <point x="274" y="170"/>
      <point x="236" y="170" type="qcurve" smooth="yes"/>
      <point x="161" y="170" type="line" smooth="yes"/>
      <point x="28" y="170"/>
    </contour>
    <contour>
      <point x="158" y="292" type="line" smooth="yes"/>
      <point x="158" y="288"/>
      <point x="162" y="288" type="qcurve" smooth="yes"/>
      <point x="239" y="288" type="line" smooth="yes"/>
      <point x="243" y="288"/>
      <point x="243" y="292" type="qcurve" smooth="yes"/>
      <point x="243" y="378" type="line" smooth="yes"/>
      <point x="243" y="382"/>
      <point x="239" y="382" type="qcurve" smooth="yes"/>
      <point x="162" y="382" type="line" smooth="yes"/>
      <point x="158" y="382"/>
      <point x="158" y="378" type="qcurve" smooth="yes"/>
    </contour>
    <contour>
      <point x="373" y="292" type="line" smooth="yes"/>
      <point x="373" y="288"/>
      <point x="377" y="288" type="qcurve" smooth="yes"/>
      <point x="454" y="288" type="line" smooth="yes"/>
      <point x="458" y="288"/>
      <point x="458" y="292" type="qcurve" smooth="yes"/>
      <point x="458" y="378" type="line" smooth="yes"/>
      <point x="458" y="382"/>
      <point x="454" y="382" type="qcurve" smooth="yes"/>
      <point x="377" y="382" type="line" smooth="yes"/>
      <point x="373" y="382"/>
      <point x="373" y="378" type="qcurve" smooth="yes"/>
    </contour>
  </outline>
</glyph>
<glyph name="integral" format="2">
  <advance width="507"/>
  <unicode hex="222B"/>
  <outline>
    <contour>
      <point x="20" y="-55" type="line"/>
      <point x="157" y="-55" type="line" smooth="yes"/>
      <point x="170" y="-55"/>
      <point x="170" y="-42" type="qcurve" smooth="yes"/>
      <point x="170" y="572" type="line" smooth="yes"/>
      <point x="170" y="740"/>
      <point x="338" y="740" type="qcurve" smooth="yes"/>
      <point x="417" y="740" type="line"/>
      <point x="487" y="688" type="line"/>
      <point x="487" y="595" type="line"/>
      <point x="350" y="595" type="line" smooth="yes"/>
      <point x="337" y="595"/>
      <point x="337" y="582" type="qcurve" smooth="yes"/>
      <point x="337" y="-32" type="line" smooth="yes"/>
      <point x="337" y="-200"/>
      <point x="169" y="-200" type="qcurve" smooth="yes"/>
      <point x="90" y="-200" type="line"/>
      <point x="20" y="-148" type="line"/>
    </contour>
  </outline>
</glyph>
<glyph name="lessequal" format="2">
  <advance width="578"/>
  <unicode hex="2264"/>
  <outline>
    <contour>
      <point x="58" y="0" type="line"/>
      <point x="58" y="142" type="line"/>
      <point x="520" y="142" type="line"/>
      <point x="520" y="0" type="line"/>
    </contour>
    <contour>
      <point x="64" y="358" type="line"/>
      <point x="64" y="514" type="line"/>
      <point x="469" y="708" type="line"/>
      <point x="529" y="582" type="line"/>
      <point x="218" y="436" type="line"/>
      <point x="529" y="290" type="line"/>
      <point x="469" y="164" type="line"/>
    </contour>
  </outline>
</glyph>
<glyph name="greaterequal" format="2">
  <advance width="578"/>
  <unicode hex="2265"/>
  <outline>
    <contour>
      <point x="58" y="0" type="line"/>
      <point x="58" y="142" type="line"/>
      <point x="520" y="142" type="line"/>
      <point x="520" y="0" type="line"/>
    </contour>
    <contour>
      <point x="49" y="290" type="line"/>
      <point x="360" y="436" type="line"/>
      <point x="49" y="582" type="line"/>
      <point x="109" y="708" type="line"/>
      <point x="514" y="514" type="line"/>
      <point x="514" y="358" type="line"/>
      <point x="109" y="164" type="line"/>
    </contour>
  </outline>
</glyph>
<glyph name="uniF000" format="2">
  <advance width="700"/>
  <unicode hex="F000"/>
  <outline>
    <contour>
      <point x="50" y="605" type="line"/>
      <point x="650" y="605" type="line"/>
      <point x="350" y="85" type="line"/>
    </contour>
  </outline>
</glyph>
<glyph name=".notdef" format="2">
  <advance width="598"/>
  <outline>
    <contour>
      <point x="76" y="0" type="line"/>
      <point x="76" y="740" type="line"/>
      <point x="522" y="740" type="line"/>
      <point x="522" y="0" type="line"/>
    </contour>
    <contour>
      <point x="172" y="95" type="line"/>
      <point x="426" y="95" type="line"/>
      <point x="426" y="645" type="line"/>
      <point x="172" y="645" type="line"/>
    </contour>
  </outline>
</glyph>
<glyph name="uni0302.cap" format="2">
  <outline>
    <contour>
      <point x="-502" y="800" type="line"/>
      <point x="-335" y="963" type="line"/>
      <point x="-168" y="800" type="line"/>
      <point x="-238" y="727" type="line"/>
      <point x="-335" y="820" type="line"/>
      <point x="-432" y="727" type="line"/>
    </contour>
  </outline>
</glyph>
<glyph name="uni0304.cap" format="2">
  <outline>
    <contour>
      <point x="-489" y="762" type="line"/>
      <point x="-489" y="874" type="line"/>
      <point x="-181" y="874" type="line"/>
      <point x="-181" y="762" type="line"/>
    </contour>
  </outline>
</glyph>
<glyph name="uni0306.cap" format="2">
  <outline>
    <contour>
      <point x="-479" y="834" type="qcurve" smooth="yes"/>
      <point x="-479" y="903" type="line"/>
      <point x="-387" y="903" type="line"/>
      <point x="-387" y="840" type="line" smooth="yes"/>
      <point x="-387" y="836"/>
      <point x="-383" y="836" type="qcurve" smooth="yes"/>
      <point x="-287" y="836" type="line" smooth="yes"/>
      <point x="-283" y="836"/>
      <point x="-283" y="840" type="qcurve" smooth="yes"/>
      <point x="-283" y="903" type="line"/>
      <point x="-191" y="903" type="line"/>
      <point x="-191" y="834" type="line" smooth="yes"/>
      <point x="-191" y="743"/>
      <point x="-282" y="743" type="qcurve" smooth="yes"/>
      <point x="-388" y="743" type="line" smooth="yes"/>
      <point x="-479" y="743"/>
    </contour>
  </outline>
</glyph>
<glyph name="uni0307.cap" format="2">
  <outline>
    <contour>
      <point x="-420" y="762" type="line"/>
      <point x="-420" y="917" type="line"/>
      <point x="-250" y="917" type="line"/>
      <point x="-250" y="762" type="line"/>
    </contour>
  </outline>
</glyph>
<glyph name="uni0308.cap" format="2">
  <outline>
    <contour>
      <point x="-510" y="746" type="line"/>
      <point x="-510" y="888" type="line"/>
      <point x="-370" y="888" type="line"/>
      <point x="-370" y="746" type="line"/>
    </contour>
    <contour>
      <point x="-300" y="746" type="line"/>
      <point x="-300" y="888" type="line"/>
      <point x="-160" y="888" type="line"/>
      <point x="-160" y="746" type="line"/>
    </contour>
  </outline>
</glyph>
<glyph name="uni030A.cap" format="2">
  <outline>
    <contour>
      <point x="-458" y="800" type="qcurve" smooth="yes"/>
      <point x="-458" y="860" type="line" smooth="yes"/>
      <point x="-458" y="944"/>
      <point x="-373" y="944" type="qcurve" smooth="yes"/>
      <point x="-297" y="944" type="line" smooth="yes"/>
      <point x="-212" y="944"/>
      <point x="-212" y="860" type="qcurve" smooth="yes"/>
      <point x="-212" y="800" type="line" smooth="yes"/>
      <point x="-212" y="716"/>
      <point x="-297" y="716" type="qcurve" smooth="yes"/>
      <point x="-373" y="716" type="line" smooth="yes"/>
      <point x="-458" y="716"/>
    </contour>
    <contour>
      <point x="-367" y="798" type="line" smooth="yes"/>
      <point x="-367" y="794"/>
      <point x="-363" y="794" type="qcurve" smooth="yes"/>
      <point x="-307" y="794" type="line" smooth="yes"/>
      <point x="-303" y="794"/>
      <point x="-303" y="798" type="qcurve" smooth="yes"/>
      <point x="-303" y="862" type="line" smooth="yes"/>
      <point x="-303" y="866"/>
      <point x="-307" y="866" type="qcurve" smooth="yes"/>
      <point x="-363" y="866" type="line" smooth="yes"/>
      <point x="-367" y="866"/>
      <point x="-367" y="862" type="qcurve" smooth="yes"/>
    </contour>
  </outline>
</glyph>
<glyph name="zero.zero" format="2">
  <advance width="578"/>
  <outline>
    <contour>
      <point x="46" y="176" type="qcurve" smooth="yes"/>
      <point x="46" y="514" type="line" smooth="yes"/>
      <point x="46" y="690"/>
      <point x="222" y="690" type="qcurve" smooth="yes"/>
      <point x="356" y="690" type="line" smooth="yes"/>
      <point x="532" y="690"/>
      <point x="532" y="514" type="qcurve" smooth="yes"/>
      <point x="532" y="176" type="line" smooth="yes"/>
      <point x="532" y="0"/>
      <point x="356" y="0" type="qcurve" smooth="yes"/>
      <point x="222" y="0" type="line" smooth="yes"/>
      <point x="46" y="0"/>
    </contour>
    <contour>
      <point x="220" y="168" type="line" smooth="yes"/>
      <point x="220" y="157"/>
      <point x="231" y="157" type="qcurve" smooth="yes"/>
      <point x="347" y="157" type="line" smooth="yes"/>
      <point x="358" y="157"/>
      <point x="358" y="168" type="qcurve" smooth="yes"/>
      <point x="358" y="522" type="line" smooth="yes"/>
      <point x="358" y="533"/>
      <point x="347" y="533" type="qcurve" smooth="yes"/>
      <point x="231" y="533" type="line" smooth="yes"/>
      <point x="220" y="533"/>
      <point x="220" y="522" type="qcurve" smooth="yes"/>
    </contour>
    <contour>
      <point x="254" y="273" type="line"/>
      <point x="254" y="417" type="line"/>
      <point x="324" y="417" type="line"/>
      <point x="324" y="273" type="line"/>
    </contour>
  </outline>
</glyph>
